<?xml version="1.0" encoding="utf-8"?>
<!-- Generator: Adobe Illustrator 16.0.3, SVG Export Plug-In . SVG Version: 6.00 Build 0)  -->
<svg version="1.2" baseProfile="tiny" id="Layer_1" xmlns="http://www.w3.org/2000/svg" xmlns:xlink="http://www.w3.org/1999/xlink"
	 x="0px" y="0px" width="300px" height="300px" viewBox="0 0 300 300" xml:space="preserve">
<g>
	<g>
		<polygon fill="#DE3365" points="80.832,44.959 80.831,52.771 14.354,149.763 80.831,246.76 80.832,254.571 9,149.763 		"/>
		<polygon fill="#DE3365" points="97.938,77.736 100.616,81.642 51.242,153.659 48.572,149.762 		"/>
		<polygon fill="#DE3365" points="89.093,133.113 91.77,137.02 66.029,174.752 63.359,170.854 		"/>
	</g>
	<g>
		<polygon fill="#B32A86" points="80.832,254.571 150.011,153.718 219.128,254.569 290.947,149.758 285.594,149.758 
			219.128,246.754 202.055,221.843 251.447,149.76 246.093,149.76 199.378,217.938 149.974,145.854 80.831,246.76 		"/>
	</g>
	<g>
		<polygon fill="#33A3C1" points="80.832,44.959 149.974,145.854 147.295,149.762 80.831,52.771 		"/>
		<polygon fill="#33A3C1" points="103.305,221.81 100.626,225.715 150.02,297.783 199.381,225.751 196.678,221.81 150.02,289.972 		
			"/>
		<polygon fill="#33A3C1" points="150.02,1.747 150.02,9.559 246.093,149.76 251.447,149.76 202.054,77.68 219.128,52.768 
			285.594,149.758 290.947,149.758 219.128,44.956 199.378,73.773 		"/>
	</g>
</g>
</svg>
