<?xml version="1.0" encoding="utf-8"?>
<!-- Generator: Adobe Illustrator 16.0.3, SVG Export Plug-In . SVG Version: 6.00 Build 0)  -->
<!DOCTYPE svg PUBLIC "-//W3C//DTD SVG 1.1//EN" "http://www.w3.org/Graphics/SVG/1.1/DTD/svg11.dtd">
<svg version="1.1" id="Layer_1" xmlns="http://www.w3.org/2000/svg" xmlns:xlink="http://www.w3.org/1999/xlink" x="0px" y="0px"
	 width="300px" height="300px" viewBox="0 0 300 300" enable-background="new 0 0 300 300" xml:space="preserve">
<g>
	<g>
		<polygon fill="#FFFFFF" points="80.832,44.959 80.831,52.771 14.354,149.763 80.831,246.76 80.832,254.57 9,149.763 		"/>
		<polygon fill="#FFFFFF" points="97.938,77.736 100.616,81.642 51.242,153.659 48.572,149.762 		"/>
		<polygon fill="#FFFFFF" points="89.093,133.113 91.77,137.02 66.029,174.752 63.359,170.854 		"/>
	</g>
	<g>
		<polygon fill="#FFFFFF" points="80.832,254.57 150.011,153.718 219.128,254.568 290.947,149.758 285.594,149.758 219.128,246.754 
			202.055,221.843 251.447,149.76 246.093,149.76 199.378,217.938 149.974,145.854 80.831,246.76 		"/>
	</g>
	<g>
		<polygon fill="#FFFFFF" points="80.832,44.959 149.974,145.854 147.295,149.762 80.831,52.771 		"/>
		<polygon fill="#FFFFFF" points="103.305,221.811 100.626,225.715 150.02,297.783 199.381,225.751 196.678,221.811 150.02,289.973 
					"/>
		<polygon fill="#FFFFFF" points="150.02,1.747 150.02,9.559 246.093,149.76 251.447,149.76 202.055,77.68 219.128,52.768 
			285.594,149.758 290.947,149.758 219.128,44.956 199.378,73.773 		"/>
	</g>
</g>
</svg>
